<svg width="11" height="11" viewBox="0 0 11 11" fill="none" xmlns="http://www.w3.org/2000/svg">
<path fill-rule="evenodd" clip-rule="evenodd" d="M6.30213 0.661927C6.4896 0.849455 6.59492 1.10376 6.59492 1.36893C6.59492 1.63409 6.4896 1.8884 6.30213 2.07593L3.00913 5.36893L6.30213 8.66193C6.39764 8.75417 6.47383 8.86452 6.52624 8.98652C6.57864 9.10853 6.60623 9.23975 6.60738 9.37253C6.60854 9.50531 6.58324 9.63698 6.53295 9.75988C6.48267 9.88278 6.40842 9.99443 6.31453 10.0883C6.22064 10.1822 6.10898 10.2565 5.98609 10.3067C5.86319 10.357 5.73151 10.3823 5.59873 10.3812C5.46595 10.38 5.33473 10.3524 5.21273 10.3C5.09072 10.2476 4.98038 10.1714 4.88813 10.0759L0.888134 6.07593C0.700663 5.8884 0.595347 5.63409 0.595347 5.36893C0.595347 5.10376 0.700663 4.84945 0.888134 4.66193L4.88813 0.661927C5.07566 0.474456 5.32997 0.369141 5.59513 0.369141C5.8603 0.369141 6.11461 0.474456 6.30213 0.661927Z" fill="white"/>
<path fill-rule="evenodd" clip-rule="evenodd" d="M6.30213 0.661927C6.4896 0.849455 6.59492 1.10376 6.59492 1.36893C6.59492 1.63409 6.4896 1.8884 6.30213 2.07593L3.00913 5.36893L6.30213 8.66193C6.39764 8.75417 6.47383 8.86452 6.52624 8.98652C6.57864 9.10853 6.60623 9.23975 6.60738 9.37253C6.60854 9.50531 6.58324 9.63698 6.53295 9.75988C6.48267 9.88278 6.40842 9.99443 6.31453 10.0883C6.22064 10.1822 6.10898 10.2565 5.98609 10.3067C5.86319 10.357 5.73151 10.3823 5.59873 10.3812C5.46595 10.38 5.33473 10.3524 5.21273 10.3C5.09072 10.2476 4.98038 10.1714 4.88813 10.0759L0.888134 6.07593C0.700663 5.8884 0.595347 5.63409 0.595347 5.36893C0.595347 5.10376 0.700663 4.84945 0.888134 4.66193L4.88813 0.661927C5.07566 0.474456 5.32997 0.369141 5.59513 0.369141C5.8603 0.369141 6.11461 0.474456 6.30213 0.661927Z" fill="white"/>
<path fill-rule="evenodd" clip-rule="evenodd" d="M10.3139 0.661927C10.5013 0.849455 10.6066 1.10376 10.6066 1.36893C10.6066 1.63409 10.5013 1.8884 10.3139 2.07593L7.02085 5.36893L10.3139 8.66193C10.4094 8.75417 10.4855 8.86452 10.538 8.98652C10.5904 9.10853 10.6179 9.23975 10.6191 9.37253C10.6203 9.50531 10.595 9.63698 10.5447 9.75988C10.4944 9.88278 10.4201 9.99443 10.3262 10.0883C10.2324 10.1822 10.1207 10.2565 9.99781 10.3067C9.87491 10.357 9.74323 10.3823 9.61045 10.3812C9.47767 10.38 9.34645 10.3524 9.22445 10.3C9.10244 10.2476 8.9921 10.1714 8.89985 10.0759L4.89985 6.07593C4.71238 5.8884 4.60707 5.63409 4.60707 5.36893C4.60707 5.10376 4.71238 4.84945 4.89985 4.66193L8.89985 0.661927C9.08738 0.474456 9.34169 0.369141 9.60685 0.369141C9.87202 0.369141 10.1263 0.474456 10.3139 0.661927Z" fill="white"/>
</svg>
